<?xml version="1.0" encoding="UTF-8"?>
<svg width="41px" height="52px" viewBox="0 0 41 52" version="1.1" xmlns="http://www.w3.org/2000/svg" xmlns:xlink="http://www.w3.org/1999/xlink">
    <title>colocacion</title>
    <g id="Page-1" stroke="none" stroke-width="1" fill="none" fill-rule="evenodd" stroke-linejoin="round">
        <g id="Home" transform="translate(-968.000000, -1787.000000)" stroke="#000000" stroke-width="2">
            <g id="colocacion" transform="translate(969.000000, 1788.000000)">
                <line x1="3" y1="17" x2="34" y2="17" id="Path" stroke-linecap="round"></line>
                <path d="M14.2702703,10 L12,1.76470588 L12,1.76470588 C16.3513514,-0.588235294 21.6486486,-0.588235294 26,1.76470588 L26,1.76470588 L23.7297297,10" id="Path" stroke-linecap="round"></path>
                <path d="M26,3 C29.6363636,5.36619718 32,9.70422535 32,14.6338028 L32,17" id="Path" stroke-linecap="round"></path>
                <path d="M6,17 L6,14.6338028 C6,9.70422535 8.36363636,5.36619718 12,3" id="Path" stroke-linecap="round"></path>
                <path d="M30.3804857,39.1294118 C26.875045,38.1588235 24.3433379,34.6647059 24.3433379,30.5882353 C26.875045,29.0352941 28.4330187,26.1235294 29.0172588,22.8235294 C24.7328313,22.8235294 21.0326439,20.4941176 19.0851769,17 L9.73733516,17 L9.73733516,20.8823529 C9.73733516,24.9588235 11.4900555,28.6470588 14.6060027,30.5882353 L14.6060027,30.5882353 C14.6060027,34.6647059 12.0742956,38.1588235 8.37410823,39.1294118 C4.08968077,40.2941176 0.973733516,44.1764706 0,48.8352941 C0,49.4176471 0.389493406,50 0.973733516,50 L38.1703538,50 C38.7545939,50 39.1440873,49.4176471 38.9493406,48.8352941 C37.9756071,43.9823529 34.6649132,40.2941176 30.3804857,39.1294118 Z" id="Path"></path>
            </g>
        </g>
    </g>
</svg>