<?xml version="1.0" encoding="UTF-8"?>
<svg width="50px" height="52px" viewBox="0 0 50 52" version="1.1" xmlns="http://www.w3.org/2000/svg" xmlns:xlink="http://www.w3.org/1999/xlink">
    <title>presfuerzo</title>
    <g id="Page-1" stroke="none" stroke-width="1" fill="none" fill-rule="evenodd">
        <g id="Home" transform="translate(-424.000000, -1787.000000)" fill="#000000" fill-rule="nonzero">
            <path d="M438.998036,1824.00089 C438.939509,1825.66723 437.580135,1827 435.911765,1827 L435.911765,1827 L427.088235,1827 C425.38265,1827 424,1825.60711 424,1823.88889 L424,1823.88889 L424,1822.11111 C424,1820.39289 425.38265,1819 427.088235,1819 L427.088235,1819 L435.911765,1819 C437.61735,1819 439,1820.39289 439,1822.11111 L438.997,1822 L441,1822 L441,1818.18182 C441,1816.07851 442.231155,1814.26789 443.999963,1813.45584 L444,1805.29412 C444,1802.45463 446.216814,1800.13725 449.000419,1800.00588 L449,1795 L448.975,1795 C447.390633,1795 446.095536,1793.70482 446.00505,1792.07169 L446,1791.88889 L446,1790.11111 C446,1788.39289 447.331953,1787 448.975,1787 L448.975,1787 L460.025,1787 C461.668047,1787 463,1788.39289 463,1790.11111 L463,1790.11111 L463,1791.88889 C463,1793.60711 461.668047,1795 460.025,1795 L460.025,1795 L459,1795 L459,1800 L459.75,1800 C462.577008,1800 464.882132,1802.25323 464.995621,1805.07589 L465,1805.29412 L465.000809,1813.11943 C467.287809,1813.62805 469,1815.70141 469,1818.18182 L469,1818.18182 L469,1830 L470.956522,1830 C472.579427,1830 473.905648,1831.31472 473.995182,1832.97125 L474,1833.15 L474,1835.85 C474,1837.5897 472.637388,1839 470.956522,1839 L470.956522,1839 L437.043478,1839 C435.362612,1839 434,1837.5897 434,1835.85 L434,1835.85 L434,1833.15 C434,1831.4103 435.362612,1830 437.043478,1830 L437.043478,1830 L441,1830 L441,1824 Z M441,1831.8 L437.043478,1831.8 C436.323107,1831.8 435.73913,1832.40442 435.73913,1833.15 L435.73913,1833.15 L435.73913,1835.85 C435.73913,1836.59558 436.323107,1837.2 437.043478,1837.2 L437.043478,1837.2 L470.956522,1837.2 C471.676893,1837.2 472.26087,1836.59558 472.26087,1835.85 L472.26087,1835.85 L472.26087,1833.15 C472.26087,1832.40442 471.676893,1831.8 470.956522,1831.8 L470.956522,1831.8 L469,1831.8 L469,1832 L441,1832 L441,1831.8 Z M465.000993,1814.90994 L465,1815 L444.76783,1814.99961 C443.550761,1815.52452 442.69697,1816.75168 442.69697,1818.18182 L442.69697,1818.18182 L442.696,1822 L450,1822 L450,1824 L442.696,1824 L442.696,1830 L467.303,1830 L467.30303,1818.18182 C467.30303,1816.66274 466.339737,1815.37267 465.000993,1814.90994 Z M454,1819 C456.209139,1819 458,1820.79086 458,1823 C458,1825.20914 456.209139,1827 454,1827 C451.790861,1827 450,1825.20914 450,1823 C450,1820.79086 451.790861,1819 454,1819 Z M454,1820.77778 C452.772701,1820.77778 451.777778,1821.7727 451.777778,1823 C451.777778,1824.2273 452.772701,1825.22222 454,1825.22222 C455.227299,1825.22222 456.222222,1824.2273 456.222222,1823 C456.222222,1821.7727 455.227299,1820.77778 454,1820.77778 Z M435.911765,1820.77778 L427.088235,1820.77778 C426.35727,1820.77778 425.764706,1821.37473 425.764706,1822.11111 L425.764706,1822.11111 L425.764706,1823.88889 C425.764706,1824.62527 426.35727,1825.22222 427.088235,1825.22222 L427.088235,1825.22222 L435.911765,1825.22222 C436.64273,1825.22222 437.235294,1824.62527 437.235294,1823.88889 L437.229,1824 L437,1824 L437,1822 L437.230795,1822.00038 C437.174926,1821.3158 436.605715,1820.77778 435.911765,1820.77778 L435.911765,1820.77778 Z M459.75,1801.76471 L459,1801.764 L459,1802 L449,1802 L449.000568,1801.77353 C447.18398,1801.90252 445.75,1803.42945 445.75,1805.29412 L445.75,1805.29412 L445.750467,1813.0114 C445.862988,1813.00384 445.976508,1813 446.090909,1813 L446.090909,1813 L463.25,1813 L463.25,1805.29412 C463.25,1803.40985 461.785722,1801.87046 459.942035,1801.76993 L459.75,1801.76471 Z M457.333,1795 L450.666,1795 L450.666,1800 L457.333,1800 L457.333,1795 Z M460.025,1788.77778 L448.975,1788.77778 C448.270837,1788.77778 447.7,1789.37473 447.7,1790.11111 L447.7,1790.11111 L447.7,1791.88889 C447.7,1792.62527 448.270837,1793.22222 448.975,1793.22222 L448.975,1793.22222 L449,1793.222 L449,1793 L459,1793 L459,1793.222 L460.025,1793.22222 C460.685153,1793.22222 461.228125,1792.69756 461.293417,1792.02521 L461.3,1791.88889 L461.3,1790.11111 C461.3,1789.37473 460.729163,1788.77778 460.025,1788.77778 L460.025,1788.77778 Z" id="presfuerzo"></path>
        </g>
    </g>
</svg>