<?xml version="1.0" encoding="UTF-8"?>
<svg width="20px" height="20px" viewBox="0 0 20 20" version="1.1" xmlns="http://www.w3.org/2000/svg" xmlns:xlink="http://www.w3.org/1999/xlink">
    <title>insta</title>
    <g id="Page-1" stroke="none" stroke-width="1" fill="none" fill-rule="evenodd">
        <g id="Home" transform="translate(-1336.000000, -52.000000)" fill="#FFFFFF">
            <path d="M1346.00444,56.9111111 C1343.17778,56.9111111 1340.89778,59.1911111 1340.89778,62.0177778 C1340.89778,64.8444444 1343.17778,67.1244444 1346.00444,67.1244444 C1348.83111,67.1244444 1351.11111,64.8444444 1351.11111,62.0177778 C1351.11111,59.1911111 1348.83111,56.9111111 1346.00444,56.9111111 Z M1346.00444,65.3377778 C1344.17778,65.3377778 1342.68444,63.8488889 1342.68444,62.0177778 C1342.68444,60.1866667 1344.17333,58.6977778 1346.00444,58.6977778 C1347.83556,58.6977778 1349.32444,60.1866667 1349.32444,62.0177778 C1349.32444,63.8488889 1347.83111,65.3377778 1346.00444,65.3377778 L1346.00444,65.3377778 Z M1352.51111,56.7022222 C1352.51111,57.3644444 1351.97778,57.8933333 1351.32,57.8933333 C1350.65778,57.8933333 1350.12889,57.36 1350.12889,56.7022222 C1350.12889,56.0444444 1350.66222,55.5111111 1351.32,55.5111111 C1351.97778,55.5111111 1352.51111,56.0444444 1352.51111,56.7022222 Z M1355.89333,57.9111111 C1355.81778,56.3155556 1355.45333,54.9022222 1354.28444,53.7377778 C1353.12,52.5733333 1351.70667,52.2088889 1350.11111,52.1288889 C1348.46667,52.0355556 1343.53778,52.0355556 1341.89333,52.1288889 C1340.30222,52.2044444 1338.88889,52.5688889 1337.72,53.7333333 C1336.55111,54.8977778 1336.19111,56.3111111 1336.11111,57.9066667 C1336.01778,59.5511111 1336.01778,64.48 1336.11111,66.1244444 C1336.18667,67.72 1336.55111,69.1333333 1337.72,70.2977778 C1338.88889,71.4622222 1340.29778,71.8266667 1341.89333,71.9066667 C1343.53778,72 1348.46667,72 1350.11111,71.9066667 C1351.70667,71.8311111 1353.12,71.4666667 1354.28444,70.2977778 C1355.44889,69.1333333 1355.81333,67.72 1355.89333,66.1244444 C1355.98667,64.48 1355.98667,59.5555556 1355.89333,57.9111111 Z M1353.76889,67.8888889 C1353.42222,68.76 1352.75111,69.4311111 1351.87556,69.7822222 C1350.56444,70.3022222 1347.45333,70.1822222 1346.00444,70.1822222 C1344.55556,70.1822222 1341.44,70.2977778 1340.13333,69.7822222 C1339.26222,69.4355556 1338.59111,68.7644444 1338.24,67.8888889 C1337.72,66.5777778 1337.84,63.4666667 1337.84,62.0177778 C1337.84,60.5688889 1337.72444,57.4533333 1338.24,56.1466667 C1338.58667,55.2755556 1339.25778,54.6044444 1340.13333,54.2533333 C1341.44444,53.7333333 1344.55556,53.8533333 1346.00444,53.8533333 C1347.45333,53.8533333 1350.56889,53.7377778 1351.87556,54.2533333 C1352.74667,54.6 1353.41778,55.2711111 1353.76889,56.1466667 C1354.28889,57.4577778 1354.16889,60.5688889 1354.16889,62.0177778 C1354.16889,63.4666667 1354.28889,66.5822222 1353.76889,67.8888889 Z" id="insta"></path>
        </g>
    </g>
</svg>