<?xml version="1.0" encoding="UTF-8"?>
<svg width="336px" height="85px" viewBox="0 0 336 85" version="1.1" xmlns="http://www.w3.org/2000/svg" xmlns:xlink="http://www.w3.org/1999/xlink">
    <title>Logo Alcreq</title>
    <g id="Page-1" stroke="none" stroke-width="1" fill="none" fill-rule="evenodd">
        <g id="Nosotros" transform="translate(-531.000000, -644.000000)" fill-rule="nonzero">
            <g id="Logo-Alcreq" transform="translate(531.000000, 644.000000)">
                <path d="M93.43,57.8107384 L66.43,57.8107384 L62.32,69.1007384 L56,69.1007384 L75.49,15.7507384 L83.94,15.7507384 L103.87,69.1007384 L97.58,69.1007384 L93.43,57.8107384 Z M91.68,53.2707384 L79.83,20.6807384 L68.15,53.2707384 L91.68,53.2707384 Z" id="Shape" fill="#1A5632"></path>
                <path d="M105,69.9107384 L97,69.9107384 L92.87,58.6207384 L67,58.6207384 L62.9,69.9107384 L54.8,69.9107384 L74.93,15.0007384 L84.5,15.0007384 L105,69.9107384 Z M98.14,68.3007384 L102.71,68.3007384 L83.38,16.5607384 L76.06,16.5607384 L57.1,68.3007384 L61.76,68.3007384 L65.86,57.0007384 L94,57.0007384 L98.14,68.3007384 Z M92.83,54.0807384 L67,54.0807384 L79.83,18.3007384 L92.83,54.0807384 Z M69.29,52.4707384 L90.52,52.4707384 L79.84,23.0507384 L69.29,52.4707384 Z" id="Shape" fill="#1A5632"></path>
                <polygon id="Path" fill="#1A5632" points="115.36 15.7507384 115.36 63.5207384 142.8 63.5207384 142.8 69.1007384 109.34 69.1007384 109.34 15.7507384"></polygon>
                <path d="M143.61,69.9107384 L108.54,69.9107384 L108.54,15.0007384 L116.17,15.0007384 L116.17,62.7107384 L143.61,62.7107384 L143.61,69.9107384 Z M110.15,68.3007384 L142,68.3007384 L142,64.3007384 L114.55,64.3007384 L114.55,16.5607384 L110.15,16.5607384 L110.15,68.3007384 Z" id="Shape" fill="#1A5632"></path>
                <path d="M183.14,51.2807384 L189.14,51.2807384 L189.14,53.2807384 C189.14,60.5540718 187.903333,65.0974051 185.43,66.9107384 C182.956667,68.7240718 176.73,69.6274051 166.75,69.6207751 C157.81,69.6207751 152.143333,68.0240718 149.75,64.8307384 C147.356667,61.6374051 146.106667,54.1374051 146,42.3307384 C146,33.0840718 146.273333,27.2674051 146.82,24.8807384 C147.541903,22.2452888 149.212205,19.9695472 151.51,18.4907384 C154.543333,16.3040718 161.073333,15.2107384 171.1,15.2107384 C177.9,15.2107384 182.476667,16.2640718 184.83,18.3707384 C187.183333,20.4774051 188.363333,24.5540718 188.37,30.6007384 L188.37,32.0507384 L182.37,32.0507384 L182.37,30.4107384 C182.37,26.1107384 181.673333,23.3474051 180.28,22.1207384 C178.886667,20.8940718 175.74,20.2840718 170.84,20.2907384 C162.24,20.2907384 156.99,21.0074051 155.09,22.4407384 C153.19,23.8740718 152.26,27.8474051 152.3,34.3607384 C152.3,49.3407384 152.936667,58.1207384 154.21,60.7007384 C155.483333,63.2807384 159.85,64.5707384 167.31,64.5707384 C174.39,64.5707384 178.82,64.0107384 180.57,62.8907384 C182.32,61.7707384 183.21,58.9607384 183.21,54.4507384 L183.14,51.2807384 Z" id="Path" fill="#1A5632"></path>
                <path d="M166.72,70.4607384 C157.43,70.4607384 151.64,68.7907384 149.04,65.3507384 C146.44,61.9107384 145.24,54.4507384 145.24,42.3507384 C145.24,32.9507384 145.51,27.1807384 146.08,24.7207384 C146.846672,21.8971595 148.626683,19.4549841 151.08,17.8607384 C154.27,15.5407384 160.83,14.4207384 171.14,14.4207384 C178.21,14.4207384 182.88,15.5207384 185.41,17.7907384 C187.94,20.0607384 189.22,24.2807384 189.22,30.6207384 L189.28,32.8807384 L181.68,32.8807384 L181.63,30.4507384 C181.63,25.4007384 180.63,23.4507384 179.81,22.7507384 C178.99,22.0507384 176.72,21.1107384 170.9,21.1107384 C160.46,21.1107384 156.84,22.1907384 155.63,23.1107384 C154.42,24.0307384 153.1,26.6407384 153.1,34.3907384 C153.1,52.8107384 154.1,58.6907384 154.93,60.3907384 C155.76,62.0907384 158.48,63.8107384 167.31,63.8107384 C175.9,63.8107384 179.03,62.9707384 180.14,62.2607384 C181.62,61.3207384 182.41,58.6307384 182.41,54.5007384 L182.31,50.5007384 L189.92,50.5007384 L189.92,53.3307384 C189.92,60.9507384 188.6,65.6207384 185.92,67.6107384 C183.24,69.6007384 177,70.4607384 166.72,70.4607384 Z M171.14,16.0007384 C161.32,16.0007384 154.89,17.0007384 152.03,19.1307384 C149.8949,20.5017541 148.336562,22.6080009 147.65,25.0507384 C147.12,27.3607384 146.85,33.1707384 146.85,42.3207384 C146.85,53.9207384 148.02,61.3207384 150.32,64.3207384 C152.62,67.3207384 158.09,68.7907384 166.72,68.7907384 C176.48,68.7907384 182.6,67.9207384 184.93,66.2207384 C187.26,64.5207384 188.31,60.2207384 188.31,53.2207384 L188.31,52.0907384 L184,52.0907384 L184.06,54.4307384 C184.06,59.3007384 183.06,62.2807384 181.06,63.5707384 C179.06,64.8607384 174.67,65.3807384 167.36,65.3807384 C159.5,65.3807384 154.98,63.9607384 153.54,61.0607384 C152.19,58.3407384 151.54,49.6107384 151.54,34.3607384 C151.54,27.5107384 152.54,23.3607384 154.71,21.7907384 C156.88,20.2207384 162.09,19.4807384 170.95,19.4807384 C176.1,19.4807384 179.36,20.1507384 180.95,21.4807384 C182.54,22.8107384 183.32,25.7907384 183.32,30.3707384 L183.32,31.2107384 L187.68,31.2107384 L187.68,30.5907384 C187.68,24.7907384 186.58,20.8707384 184.41,18.9307384 C182.24,16.9907384 177.7,16.0007384 171.14,16.0007384 Z" id="Shape" fill="#1A5632"></path>
                <path d="M195.92,69.1007384 L195.92,15.7507384 L221.32,15.7507384 C227.053333,15.7507384 231.093333,16.8840718 233.44,19.1507384 C235.786667,21.4174051 236.973333,25.3674051 237,31.0007384 C237,35.9207384 236.36,39.3540718 235.08,41.3007384 C233.8,43.2407384 231.37,44.4907384 227.77,45.0707384 L227.77,45.1807384 C233.43,45.6007384 236.256667,49.0407384 236.25,55.5007384 L236.25,69.1007384 L230.25,69.1007384 L230.25,56.8307384 C230.25,50.6040718 227.553333,47.4907384 222.16,47.4907384 L201.94,47.4907384 L201.94,69.1007384 L195.92,69.1007384 Z M201.92,42.4107384 L219.31,42.4107384 C223.89,42.4107384 227.016667,41.7140718 228.69,40.3207384 C230.36,38.9207384 231.19,36.3207384 231.19,32.4407384 C231.19,27.6207384 230.57,24.4807384 229.33,23.0207384 C228.1,21.5607384 225.44,20.8307384 221.38,20.8307384 L201.94,20.8307384 L201.92,42.4107384 Z" id="Shape" fill="#1A5632"></path>
                <path d="M237,69.9107384 L229.37,69.9107384 L229.37,56.8307384 C229.37,51.0107384 227.05,48.3007384 222.08,48.3007384 L202.74,48.3007384 L202.74,69.9107384 L195.11,69.9107384 L195.11,15.0007384 L221.32,15.0007384 C227.24,15.0007384 231.51,16.2207384 234,18.6207384 C236.49,21.0207384 237.76,25.2007384 237.76,31.0107384 C237.76,36.1407384 237.09,39.6507384 235.76,41.7507384 C234.613843,43.3158988 232.982616,44.4584605 231.12,45.0007384 C235.04,46.4207384 237.02,49.9207384 237.02,55.4507384 L237,69.9107384 Z M231,68.3007384 L235.41,68.3007384 L235.41,55.4607384 C235.41,49.4607384 232.88,46.3307384 227.67,45.9507384 L226.93,45.8907384 L226.93,44.3407384 L227.6,44.2307384 C230.95,43.7007384 233.23,42.5507384 234.37,40.8107384 C235.51,39.0707384 236.15,35.7007384 236.15,30.9607384 C236.15,25.6107384 235.05,21.8307384 232.88,19.7307384 C230.71,17.6307384 226.81,16.5607384 221.32,16.5607384 L196.72,16.5607384 L196.72,68.3007384 L201.13,68.3007384 L201.13,46.6807384 L222.13,46.6807384 C226.19,46.6807384 231.03,48.4407384 231.03,56.8307384 L231,68.3007384 Z M219.33,43.2207384 L201.13,43.2207384 L201.13,20.0007384 L221.4,20.0007384 C225.75,20.0007384 228.56,20.8107384 229.97,22.4707384 C231.38,24.1307384 232,27.3807384 232,32.4407384 C232,36.5307384 231.06,39.4407384 229.21,40.9407384 C227.36,42.4407384 224.15,43.2207384 219.33,43.2207384 Z M202.74,41.6007384 L219.33,41.6007384 C223.7,41.6007384 226.68,40.9607384 228.19,39.7007384 C229.7,38.4407384 230.4,36.0307384 230.4,32.4407384 C230.4,26.7107384 229.5,24.4407384 228.74,23.5407384 C227.67,22.2807384 225.2,21.6407384 221.4,21.6407384 L202.74,21.6407384 L202.74,41.6007384 Z" id="Shape" fill="#1A5632"></path>
                <polygon id="Path" fill="#1A5632" points="249.66 20.8307384 249.66 39.0007384 276.74 39.0007384 276.74 44.0807384 249.66 44.0807384 249.66 64.0007384 277.92 64.0007384 277.92 69.1007384 243.64 69.1007384 243.64 15.7507384 277.92 15.7507384 277.92 20.8307384"></polygon>
                <path d="M278.72,69.9107384 L242.83,69.9107384 L242.83,15.0007384 L278.72,15.0007384 L278.72,21.6907384 L250.47,21.6907384 L250.47,38.2007384 L277.55,38.2007384 L277.55,44.9007384 L250.47,44.9007384 L250.47,63.2207384 L278.72,63.2207384 L278.72,69.9107384 Z M244.45,68.3007384 L277.11,68.3007384 L277.11,64.8307384 L248.85,64.8307384 L248.85,43.2807384 L275.94,43.2807384 L275.94,39.8107384 L248.85,39.8107384 L248.85,20.0007384 L277.11,20.0007384 L277.11,16.5607384 L244.45,16.5607384 L244.45,68.3007384 Z" id="Shape" fill="#1A5632"></path>
                <path d="M332.25,62.5807384 L329.78,66.6807384 L325,63.5907384 C322.126667,67.6307384 315.52,69.6507384 305.18,69.6507384 C294.633333,69.6507384 288.203333,68.1607384 285.89,65.1807384 C283.576667,62.2007384 282.423333,53.8940718 282.429971,40.2607384 C282.429971,29.3740718 283.746667,22.4740718 286.38,19.5607384 C289.013333,16.6474051 295.28,15.1974051 305.18,15.2106473 C315.26,15.2106473 321.566667,16.6807384 324.1,19.6207384 C326.633333,22.5607384 327.896667,29.9240718 327.89,41.7107384 C327.89,50.5374051 327.556667,56.3207384 326.89,59.0607384 L332.25,62.5807384 Z M304.26,50.0007384 L307.04,45.9007384 L321.62,55.5507384 C322.069672,52.2106233 322.250253,48.8397781 322.16,45.4707384 C322.16,32.6040718 321.493333,25.1907384 320.16,23.2307384 C318.826667,21.2707384 313.826667,20.2940718 305.16,20.3007045 C296.72,20.3007045 291.783333,21.2374051 290.35,23.1107384 C288.916667,24.9840718 288.2,31.4174051 288.2,42.4107384 C288.2,53.4307384 288.916667,59.8807384 290.35,61.7607384 C291.783333,63.6407384 296.693333,64.5774051 305.08,64.5707738 C313.42,64.5707738 318.476667,63.2040718 320.25,60.4707384 L304.26,50.0007384 Z" id="Shape" fill="#76777A"></path>
                <path d="M305.2,70.4607384 C294.28,70.4607384 287.76,68.8907384 285.27,65.6707384 C282.78,62.4507384 281.65,54.2007384 281.65,40.2607384 C281.65,29.0607384 283.01,22.1107384 285.8,19.0207384 C288.59,15.9307384 295,14.4007384 305.2,14.4007384 C315.63,14.4007384 322.01,15.9407384 324.73,19.1007384 C327.45,22.2607384 328.73,29.6207384 328.73,41.7107384 C328.73,50.1307384 328.45,55.7107384 327.86,58.7107384 L333.35,62.3507384 L330.07,67.8307384 L325.22,64.6907384 C322,68.5607384 315.4,70.4607384 305.2,70.4607384 Z M305.2,16.0107384 C295.58,16.0107384 289.46,17.3907384 287,20.1007384 C284.54,22.8107384 283.26,29.6207384 283.26,40.2607384 C283.26,53.6407384 284.36,61.8607384 286.55,64.6807384 C288.74,67.5007384 294.96,68.8507384 305.2,68.8507384 C315.2,68.8507384 321.67,66.9207384 324.36,63.1307384 L324.81,62.5007384 L329.52,65.5007384 L331.16,62.7707384 L326,59.4207384 L326.13,58.8707384 C326.76,56.2107384 327.13,50.4307384 327.13,41.7107384 C327.13,30.1807384 325.92,22.9307384 323.54,20.1507384 C321.16,17.3707384 315,16.0007384 305.2,16.0007384 L305.2,16.0107384 Z M305.08,65.3807384 C296.22,65.3807384 291.34,64.3807384 289.71,62.2507384 C288.71,60.9407384 287.39,57.4707384 287.39,42.4107384 C287.39,27.3507384 288.71,23.9107384 289.71,22.6107384 C291.34,20.4807384 296.25,19.4807384 305.16,19.4807384 C314.36,19.4807384 319.35,20.4807384 320.86,22.7707384 C321.76,24.1107384 322.97,27.9307384 322.97,45.4607384 C323.066157,48.8803519 322.878849,52.3020539 322.41,55.6907384 L322.18,56.8807384 L307.26,47.0007384 L305.39,49.7707384 L321.39,60.2307384 L320.95,60.9007384 C319,63.9107384 313.79,65.3807384 305.08,65.3807384 Z M305.16,21.0907384 C295.02,21.0907384 291.86,22.4507384 290.99,23.5907384 C290.12,24.7307384 288.99,29.0007384 288.99,42.4107384 C288.99,55.8207384 290.07,60.0807384 290.99,61.2707384 C291.91,62.4607384 294.99,63.7607384 305.08,63.7607384 C312.38,63.7607384 317.08,62.7607384 319.08,60.6607384 L303.14,50.2207384 L306.82,44.7707384 L321,54.1707384 C321.273404,51.2758245 321.390241,48.3682558 321.35,45.4607384 C321.35,29.7007384 320.35,24.9107384 319.51,23.6707384 C318.87,22.7107384 316.15,21.0907384 305.16,21.0907384 L305.16,21.0907384 Z" id="Shape" fill="#76777A"></path>
                <path d="M79.34,10.6107384 C78.4656376,10.6197037 77.5941789,10.5086684 76.75,10.2807384 C76.021073,10.090043 75.3399126,9.74946277 74.75,9.28073844 C74.1937126,8.83418674 73.7515564,8.26178298 73.46,7.61073844 C73.1446388,6.88205614 72.9878376,6.0946419 73,5.30073844 C72.987487,4.54011139 73.1410573,3.78591071 73.45,3.09073844 C73.7477007,2.44344504 74.1929349,1.8749152 74.75,1.43073844 C75.3435341,0.967723108 76.0234673,0.627756538 76.75,0.430738441 C77.5940731,0.159639038 78.47357,0.0147410735 79.36,0.000738440758 C79.7915997,0.00852206793 80.222357,0.0419141076 80.65,0.100738441 C81.0469387,0.148698949 81.4408864,0.218808293 81.83,0.310738441 C82.13,0.380738441 82.46,0.470738441 82.83,0.590738441 L83.72,0.900738441 L83.72,2.54073844 L83.56,2.54073844 C83.34,2.39073844 83.12,2.25073844 82.88,2.11073844 C82.5585646,1.94118131 82.2241819,1.79739676 81.88,1.68073844 C81.0023023,1.35972651 80.0745531,1.1972011 79.14,1.20073844 C77.9878479,1.14176042 76.859117,1.5407704 76,2.31073844 C75.196658,3.07657396 74.7629045,4.15184508 74.81,5.26073844 C74.7980778,5.87587992 74.9067921,6.48739786 75.13,7.06073844 C75.3302507,7.55525328 75.6376224,7.99923452 76.03,8.36073844 C76.4276745,8.7227815 76.8982052,8.99555291 77.41,9.16073844 C77.9997974,9.35680162 78.618561,9.45147583 79.24,9.44073844 C79.7376997,9.43927832 80.2350052,9.41257735 80.73,9.36073844 C81.1603018,9.31785677 81.5855499,9.23414653 82,9.11073844 L82,6.48073844 L78.94,6.48073844 L78.94,5.28073844 L83.77,5.28073844 L83.77,9.74073844 L82.86,10.0307384 C82.48,10.1507384 82.13,10.2407384 81.8,10.3107384 C81.47,10.3807384 80.97,10.4907384 80.62,10.5407384 C80.1954316,10.5932648 79.7677644,10.6166529 79.34,10.6107384 Z" id="Path" fill="#76777A"></path>
                <path d="M96.32,10.4107384 L94,10.4107384 L89.78,6.41073844 L87.78,6.41073844 L87.78,10.4607384 L86,10.4607384 L86,0.210738441 L89.44,0.210738441 C90.0814887,0.202535417 90.7228343,0.235938833 91.36,0.310738441 C91.8720312,0.369968779 92.3696307,0.518910128 92.83,0.750738441 C93.2660118,0.954108241 93.6467171,1.25935842 93.94,1.64073844 C94.2246687,2.03558454 94.3690009,2.51434488 94.35,3.00073844 C94.3688727,3.7038256 94.097643,4.38370804 93.6,4.88073844 C93.0408864,5.4179358 92.3516536,5.80046001 91.6,5.99073844 L96.32,10.4107384 Z M92.49,3.08073844 C92.4926362,2.80455682 92.4237347,2.53239579 92.29,2.29073844 C92.136045,2.04548066 91.9135239,1.85077471 91.65,1.73073844 C91.3738485,1.59211322 91.0763791,1.50084419 90.77,1.46073844 C90.359702,1.39878139 89.9448579,1.37201726 89.53,1.38073844 L87.77,1.38073844 L87.77,5.23074002 L89.33,5.23074002 C89.7884995,5.23100482 90.246399,5.19758151 90.7,5.13073844 C91.0627177,5.06873912 91.4054852,4.92134913 91.7,4.70073844 C91.9626529,4.5265865 92.1734045,4.28474041 92.31,4.00073844 C92.4330773,3.70985021 92.4943727,3.39656255 92.49,3.08073844 Z" id="Shape" fill="#76777A"></path>
                <path d="M102,10.6307384 C101.309017,10.6426169 100.619554,10.5618994 99.95,10.3907384 C99.4097212,10.2558001 98.9004602,10.018145 98.45,9.69073844 C98.0053042,9.3641462 97.6592868,8.92124397 97.45,8.41073844 C97.2380717,7.82467062 97.139653,7.20361492 97.16,6.58073844 L97.16,0.210738441 L99,0.210738441 L99,6.58073844 C98.9930019,6.98074648 99.033281,7.38018086 99.12,7.77073844 C99.200017,8.09097208 99.3580489,8.38642303 99.58,8.63073844 C99.8465108,8.93171414 100.193457,9.15029019 100.58,9.26073844 C101.065281,9.41172046 101.571914,9.48264915 102.08,9.47073844 C102.57799,9.47840222 103.074076,9.40753279 103.55,9.26073844 C103.934772,9.146354 104.280704,8.92841679 104.55,8.63073844 C104.765099,8.3831456 104.919216,8.08861242 105,7.77073844 C105.087494,7.39046846 105.127798,7.00086625 105.12,6.61073844 L105.12,0.210738441 L106.89,0.210738441 L106.89,6.58073844 C106.905681,7.19923144 106.810861,7.81555961 106.61,8.40073844 C106.411117,8.91991239 106.063208,9.36871493 105.61,9.69073844 C105.164804,10.0146073 104.662782,10.2520502 104.13,10.3907384 C103.434544,10.5690114 102.717689,10.6497837 102,10.6307384 L102,10.6307384 Z" id="Path" fill="#76777A"></path>
                <path d="M117.82,3.29073844 C117.821848,3.72983978 117.71537,4.16261936 117.51,4.55073844 C117.303946,4.94272215 117.013668,5.28422671 116.66,5.55073844 C116.172972,5.90883236 115.62365,6.17332072 115.04,6.33073844 C114.269493,6.52883825 113.47534,6.61969473 112.68,6.60073844 L111.18,6.60073844 L111.18,10.4007384 L109.4,10.4007384 L109.4,0.210738441 L112.75,0.210738441 C113.419737,0.20320311 114.088879,0.253388715 114.75,0.360738441 C115.261395,0.451033403 115.756707,0.616137503 116.22,0.850738441 C116.681244,1.08625493 117.079094,1.42922896 117.38,1.85073844 C117.673572,2.27295041 117.827449,2.77654775 117.82,3.29073844 Z M115.98,3.29073844 C115.986437,2.9677996 115.903371,2.64937973 115.74,2.37073844 C115.564409,2.09687368 115.31475,1.87842204 115.02,1.74073844 C114.703985,1.59014924 114.366722,1.48897058 114.02,1.44073844 C113.559687,1.3748751 113.094963,1.344785 112.63,1.35073844 L111.16,1.35073844 L111.16,5.45073844 L112.37,5.45073844 C112.949507,5.46321623 113.528865,5.41968068 114.1,5.32073844 C114.499972,5.25166121 114.877341,5.08699144 115.2,4.84073844 C115.443441,4.66624317 115.642179,4.43666603 115.78,4.17073844 C115.919753,3.90888022 115.995164,3.61751634 116,3.32073844 L115.98,3.29073844 Z" id="Shape" fill="#76777A"></path>
                <path d="M128.94,1.38073844 C129.454422,1.84113257 129.857853,2.41209024 130.12,3.05073844 C130.411219,3.77146448 130.554068,4.54352762 130.54,5.32073844 C130.553495,6.08722776 130.414114,6.84872215 130.13,7.56073844 C129.869129,8.20552421 129.461705,8.78071053 128.94,9.24073844 C128.380903,9.69927145 127.734505,10.0394805 127.04,10.2407384 C126.261166,10.4719074 125.452396,10.5864832 124.64,10.5807384 C123.816817,10.5897953 122.997167,10.4717387 122.21,10.2307384 C121.528986,10.026058 120.896334,9.6859227 120.35,9.23073844 C119.829126,8.77213019 119.424684,8.19631381 119.17,7.55073844 C118.880635,6.83995856 118.73778,6.07806537 118.75,5.31073844 C118.733083,4.5365373 118.876062,3.76717012 119.17,3.05073844 C119.439647,2.41079232 119.845772,1.83743966 120.36,1.37073844 C120.903375,0.916728616 121.532518,0.576651066 122.21,0.370738441 C122.996319,0.123893773 123.815847,-0.00089026873 124.64,0.000738440758 C125.473917,-0.0107004778 126.30433,0.110823301 127.1,0.360738441 C127.772952,0.579864351 128.397587,0.926129275 128.94,1.38073844 Z M128.7,5.32073844 C128.709467,4.70838698 128.61131,4.09913136 128.41,3.52073844 C128.241207,3.03725246 127.968081,2.59683683 127.61,2.23073844 C127.252648,1.86883414 126.813703,1.59792273 126.33,1.44073844 C125.789881,1.25404804 125.221416,1.16268755 124.65,1.17073844 C124.079264,1.16087178 123.511053,1.24880921 122.97,1.43073844 C122.490225,1.60113212 122.053401,1.87414699 121.69,2.23073844 C121.323066,2.59947374 121.045913,3.04770795 120.88,3.54073844 C120.68299,4.11305718 120.588212,4.71557515 120.6,5.32073844 C120.51393,6.453866 120.91389,7.57011861 121.7,8.39073844 C123.407699,9.81804727 125.892301,9.81804727 127.6,8.39073844 C128.376425,7.56416006 128.774805,6.45231784 128.7,5.32073844 Z" id="Shape" fill="#76777A"></path>
                <path d="M250.85,84.7207384 C250.020809,84.7326581 249.192734,84.6555498 248.38,84.4907384 C247.730834,84.3454584 247.092613,84.1549945 246.47,83.9207384 L246.47,82.2207384 L246.59,82.2207384 C247.198776,82.6590857 247.874056,82.9967258 248.59,83.2207384 C249.28199,83.4418278 250.003562,83.5564699 250.73,83.5607384 C251.497931,83.6102468 252.264969,83.451311 252.95,83.1007384 C253.406434,82.8540657 253.693456,82.3795223 253.7,81.8607384 C253.713796,81.4878299 253.572622,81.1258441 253.31,80.8607384 C252.951932,80.5640005 252.519797,80.3704039 252.06,80.3007384 C251.64,80.2007384 251.27,80.1307384 250.93,80.0707384 L249.65,79.8307384 C249.227538,79.7492419 248.812726,79.6321579 248.41,79.4807384 C248.051006,79.348514 247.713912,79.1631121 247.41,78.9307384 C247.14572,78.7091578 246.928163,78.4372126 246.77,78.1307384 C246.623107,77.8179495 246.547943,77.4762964 246.55,77.1307384 C246.560341,76.2415798 247.049725,75.4272141 247.83,75.0007384 C248.795644,74.4061155 249.916941,74.1136031 251.05,74.1607384 C251.760124,74.1594075 252.469163,74.2162644 253.17,74.3307384 C253.799613,74.4405558 254.418575,74.6044972 255.02,74.8207384 L255.02,76.4407384 L254.88,76.4407384 C254.375983,76.1079801 253.827137,75.8487096 253.25,75.6707384 C252.579694,75.4453527 251.877184,75.3305194 251.17,75.3307384 C250.475133,75.299706 249.78461,75.4550736 249.17,75.7807384 C248.714357,75.9887133 248.418719,76.4399514 248.41,76.9407384 C248.40239,77.3247 248.567581,77.6917899 248.86,77.9407384 C249.237046,78.237641 249.685226,78.4307031 250.16,78.5007384 L251.54,78.7707384 L252.89,79.0407384 C253.638175,79.177166 254.331953,79.524055 254.89,80.0407384 C255.314566,80.467277 255.545859,81.049124 255.53,81.6507384 C255.52395,82.0615183 255.413854,82.4640589 255.21,82.8207384 C254.995383,83.2189205 254.690596,83.5613773 254.32,83.8207384 C253.873935,84.128327 253.380839,84.3613656 252.86,84.5107384 C252.203182,84.6747564 251.526536,84.7454507 250.85,84.7207384 Z" id="Path" fill="#76777A"></path>
                <polygon id="Path" fill="#76777A" points="259.67 84.5307384 257.53 84.5307384 257.53 82.5307384 259.67 82.5307384"></polygon>
                <polygon id="Path" fill="#76777A" points="275.76 84.5307384 273.62 84.5307384 273.62 82.5307384 275.76 82.5307384"></polygon>
                <path d="M261.29,84.5307384 L265.79,74.3307384 L268,74.3307384 L272.5,84.5307384 L270.6,84.5307384 L269.39,81.6807384 L264.29,81.6807384 L263.09,84.5307384 L261.29,84.5307384 Z M268.9,80.5307384 L266.84,75.7207384 L264.84,80.5307384 L268.9,80.5307384 Z" id="Shape" fill="#76777A"></path>
                <path d="M290,79.4407384 C290.012374,80.3346009 289.758237,81.2118942 289.27,81.9607384 C288.7696,82.7129831 288.079761,83.3200415 287.27,83.7207384 C286.621388,84.0346302 285.930978,84.2535409 285.22,84.3707384 C284.335265,84.4908855 283.442752,84.5443694 282.55,84.5307384 L279.48,84.5307384 L279.48,74.3307384 L282.48,74.3307384 C283.467679,74.3106458 284.455126,74.3809387 285.43,74.5407384 C286.059526,74.6632488 286.67104,74.8648469 287.25,75.1407384 C288.059843,75.5274663 288.750672,76.1250332 289.25,76.8707384 C289.750387,77.6335862 290.011547,78.5284936 290,79.4407384 L290,79.4407384 Z M288.16,79.4407384 C288.180425,78.7394911 288.003732,78.0465757 287.65,77.4407384 C287.288254,76.8659291 286.762193,76.4130286 286.14,76.1407384 C285.656443,75.9172927 285.145284,75.7592369 284.62,75.6707384 C283.959226,75.5604887 283.289827,75.5102839 282.62,75.5207384 L281.27,75.5207384 L281.27,83.4007384 L282.62,83.4007384 C283.312948,83.4076566 284.005289,83.357487 284.69,83.2507384 C285.256085,83.1669484 285.803855,82.9877397 286.31,82.7207384 C286.882553,82.43426 287.361342,81.9901661 287.69,81.4407384 C288.015243,80.8190765 288.167222,80.1213531 288.13,79.4207384 L288.16,79.4407384 Z" id="Shape" fill="#76777A"></path>
                <polygon id="Path" fill="#76777A" points="291.9 84.5307384 291.9 74.3307384 300.23 74.3307384 300.23 75.5307384 293.67 75.5307384 293.67 78.3307384 299.79 78.3307384 299.79 79.5407384 293.67 79.5407384 293.67 83.3207384 300.23 83.3207384 300.23 84.5307384"></polygon>
                <path d="M313.13,84.7207384 C312.314421,84.7250045 311.502567,84.6104692 310.72,84.3807384 C310.029024,84.1782366 309.386138,83.8380853 308.83,83.3807384 C308.295449,82.9315624 307.874094,82.3629042 307.6,81.7207384 C307.026886,80.272027 307.026886,78.6594499 307.6,77.2107384 C307.887272,76.5735639 308.310506,76.0069766 308.84,75.5507384 C309.397494,75.0954318 310.039948,74.7555091 310.73,74.5507384 C311.522248,74.3008736 312.349362,74.1793384 313.18,74.1907384 C313.597942,74.1908589 314.015453,74.2175796 314.43,74.2707384 C314.796495,74.3143627 315.16036,74.3777888 315.52,74.4607384 C315.818123,74.5302818 316.111952,74.6170949 316.4,74.7207384 C316.7,74.8207384 317,74.9307384 317.29,75.0607384 L317.29,76.6907384 L317.15,76.6907384 C317.003333,76.5774051 316.803333,76.4474051 316.55,76.3007384 C316.267619,76.1212155 315.969769,75.9672707 315.66,75.8407384 C315.300036,75.69435 314.928827,75.5773021 314.55,75.4907384 C314.093163,75.3934904 313.627054,75.3465441 313.16,75.3507384 C312.611741,75.3467474 312.066962,75.4381078 311.55,75.6207384 C311.054116,75.7898971 310.598094,76.0587456 310.21,76.4107384 C309.8213,76.7751741 309.520405,77.2230968 309.33,77.7207384 C309.118442,78.2865848 309.013342,78.8866734 309.02,79.4907384 C309.005315,80.1102709 309.117621,80.7262507 309.35,81.3007384 C309.555551,81.786232 309.866369,82.2200104 310.26,82.5707384 C310.634349,82.9159876 311.07733,83.1783686 311.56,83.3407384 C312.076205,83.5104607 312.616625,83.5949013 313.16,83.5907384 C313.637097,83.5977399 314.113456,83.550775 314.58,83.4507384 C314.976067,83.363441 315.364099,83.2430174 315.74,83.0907384 C316.03764,82.9665882 316.325173,82.819478 316.6,82.6507384 C316.83,82.5007384 317.02,82.3807384 317.16,82.2707384 L317.29,82.2707384 L317.29,83.8907384 L316.47,84.1907384 C316.15942,84.3036028 315.842146,84.3971152 315.52,84.4707384 C315.163933,84.5622044 314.803474,84.6356312 314.44,84.6907384 C314.004677,84.7331325 313.566808,84.7431601 313.13,84.7207384 Z" id="Path" fill="#76777A"></path>
                <polygon id="Path" fill="#76777A" points="321.42 84.5307384 319.28 84.5307384 319.28 82.5307384 321.42 82.5307384"></polygon>
                <polygon id="Path" fill="#76777A" points="335.21 84.5307384 333.07 84.5307384 333.07 82.5307384 335.21 82.5307384"></polygon>
                <polygon id="Path" fill="#76777A" points="334.14 74.3307384 329.56 84.5307384 327.64 84.5307384 323.06 74.3307384 325 74.3307384 328.69 82.8007384 332.37 74.3307384"></polygon>
                <polygon id="Path" fill="#54565A" points="19.42 8.16073844 19.42 68.9207384 37.11 68.9207384 37.11 18.8907384"></polygon>
                <polygon id="Path" fill="#8C9091" points="38.87 34.6007384 38.87 68.9207384 44.61 68.9207384 44.61 37.4907384"></polygon>
                <polygon id="Path" fill="#76777A" points="17.69 2.28073844 17.69 40.8407384 0 52.0507384 0 12.9707384"></polygon>
                <polygon id="Path" fill="#8C9091" points="0 54.0707384 0 60.2607384 17.58 49.3307384 17.69 42.9507384"></polygon>
                <polygon id="Path" fill="#76777A" points="0 62.3307384 0 68.9207384 17.69 68.9207384 17.69 51.3307384"></polygon>
            </g>
        </g>
    </g>
</svg>