<?xml version="1.0" encoding="UTF-8"?>
<svg width="18px" height="18px" viewBox="0 0 18 18" version="1.1" xmlns="http://www.w3.org/2000/svg" xmlns:xlink="http://www.w3.org/1999/xlink">
    <title>phone</title>
    <defs>
        <filter id="filter-1">
            <feColorMatrix in="SourceGraphic" type="matrix" values="0 0 0 0 1.000000 0 0 0 0 1.000000 0 0 0 0 1.000000 0 0 0 1.000000 0"></feColorMatrix>
        </filter>
        <path d="M17.3459883,0.865371094 L13.6897383,0.0217265625 C13.2919805,-0.0700664062 12.8853984,0.136054688 12.7244883,0.511488281 L11.0369883,4.44888281 C10.888907,4.79441294 10.9872791,5.19623026 11.2782305,5.43427734 L13.4092969,7.17788672 C12.1446211,9.87349219 9.93100781,12.1176211 7.17788672,13.4092617 L5.43427734,11.2782305 C5.19623026,10.9872791 4.79441294,10.888907 4.44888281,11.0369883 L0.511488281,12.7244883 C0.136160156,12.8853281 -0.0701015625,13.291875 0.0217265625,13.6897383 L0.865371094,17.3459883 C0.953050781,17.7259219 1.29192188,18 1.6875,18 C10.6905586,18 18,10.7039531 18,1.6875 C18,1.29459375 17.7288047,0.953683594 17.3459883,0.865371094 Z" id="path-2"></path>
    </defs>
    <g id="Page-1" stroke="none" stroke-width="1" fill="none" fill-rule="evenodd">
        <g id="Home" transform="translate(-1382.000000, -885.000000)">
            <g id="phone" transform="translate(1382.000000, 885.000000)" filter="url(#filter-1)">
                <g>
                    <mask id="mask-3" fill="white">
                        <use xlink:href="#path-2"></use>
                    </mask>
                    <g id="Mask"></g>
                    <g id="Group" mask="url(#mask-3)" fill="#242A42">
                        <g id="🎨-color">
                            <rect id="Black" x="0" y="0" width="18" height="18"></rect>
                        </g>
                    </g>
                </g>
            </g>
        </g>
    </g>
</svg>