<?xml version="1.0" encoding="UTF-8"?>
<svg width="20px" height="18px" viewBox="0 0 20 18" version="1.1" xmlns="http://www.w3.org/2000/svg" xmlns:xlink="http://www.w3.org/1999/xlink">
    <title>twitter</title>
    <g id="Page-1" stroke="none" stroke-width="1" fill="none" fill-rule="evenodd">
        <g id="Home" transform="translate(-1381.000000, -53.000000)" fill="#FFFFFF">
            <path d="M1398.94414,57.9264062 C1398.95684,58.1040625 1398.95684,58.2817578 1398.95684,58.4594141 C1398.95684,63.8781641 1394.8325,70.1218359 1387.29441,70.1218359 C1384.97207,70.1218359 1382.81473,69.4492187 1381,68.2817578 C1381.32996,68.3198047 1381.64719,68.3325 1381.98984,68.3325 C1383.90605,68.3325 1385.67004,67.6853125 1387.07867,66.58125 C1385.27664,66.5431641 1383.76648,65.3629687 1383.24617,63.7385937 C1383.5,63.7766406 1383.75379,63.8020312 1384.02031,63.8020312 C1384.38832,63.8020312 1384.75637,63.75125 1385.09898,63.6624609 C1383.22082,63.2817187 1381.81215,61.6319922 1381.81215,59.6396094 L1381.81215,59.5888672 C1382.35781,59.8934375 1382.99238,60.0837891 1383.66492,60.1091406 C1382.56086,59.3730859 1381.83754,58.1167578 1381.83754,56.6954297 C1381.83754,55.9340234 1382.04055,55.2360547 1382.3959,54.6269141 C1384.41367,57.1142187 1387.44668,58.7385547 1390.84766,58.91625 C1390.78422,58.6116797 1390.74613,58.2944531 1390.74613,57.9771875 C1390.74613,55.7182812 1392.57355,53.8782031 1394.84512,53.8782031 C1396.02531,53.8782031 1397.09129,54.373125 1397.84004,55.1726172 C1398.76641,54.9949609 1399.65473,54.6523047 1400.44156,54.1827734 C1400.13695,55.1345703 1399.48977,55.9340625 1398.63953,56.4416406 C1399.46441,56.3528516 1400.26391,56.124375 1400.99992,55.8071484 C1400.44164,56.6192969 1399.74363,57.3426172 1398.94414,57.9264062 Z" id="twitter"></path>
        </g>
    </g>
</svg>