<svg width="40" height="52" viewBox="0 0 40 52" fill="none" xmlns="http://www.w3.org/2000/svg">
<path d="M19.5184 23.2222C21.5639 23.2222 23.2221 21.564 23.2221 19.5185C23.2221 17.473 21.5639 15.8148 19.5184 15.8148C17.4729 15.8148 15.8147 17.473 15.8147 19.5185C15.8147 21.564 17.4729 23.2222 19.5184 23.2222Z" stroke="white" stroke-width="2" stroke-miterlimit="10" stroke-linecap="round" stroke-linejoin="round"/>
<path d="M8.40741 24.8889C4.88889 27.6667 2.11111 31.5556 1 36.1852H5.25926C8.03704 36.1852 10.0741 33.5926 9.33333 31C8.59259 28.4074 8.22222 25.8148 8.22222 23.037C8.40741 12.8519 13.037 4.14815 19.5185 1C26 4.14815 30.6296 12.8519 30.6296 22.8519C30.6296 25.6296 30.2593 28.4074 29.5185 30.8148C28.7778 33.4074 30.8148 36 33.5926 36H38.037C36.9259 31.3704 34.1481 27.2963 30.6296 24.7037" stroke="white" stroke-width="2" stroke-miterlimit="10" stroke-linecap="round" stroke-linejoin="round"/>
<path d="M19.5186 36.1852V51" stroke="white" stroke-width="2" stroke-miterlimit="10" stroke-linecap="round" stroke-linejoin="round"/>
<path d="M13.9629 39.8889V47.2963" stroke="white" stroke-width="2" stroke-miterlimit="10" stroke-linecap="round" stroke-linejoin="round"/>
<path d="M25.074 39.8889V47.2963" stroke="white" stroke-width="2" stroke-miterlimit="10" stroke-linecap="round" stroke-linejoin="round"/>
</svg>
