<svg width="52" height="50" viewBox="0 0 52 50" fill="none" xmlns="http://www.w3.org/2000/svg">
<path d="M17.2822 15.3743L16.1472 21.9632C16.0875 22.2726 16.117 22.5925 16.2321 22.8858C16.3472 23.179 16.5433 23.4335 16.7975 23.6196C17.0475 23.8068 17.3449 23.9204 17.656 23.9475C17.9671 23.9746 18.2796 23.9142 18.5582 23.773L24.6932 20.7055L30.5091 23.7362C30.7868 23.8859 31.1009 23.9544 31.4157 23.934C31.7304 23.9136 32.0331 23.805 32.2891 23.6207C32.545 23.4364 32.744 23.1838 32.8632 22.8918C32.9824 22.5998 33.017 22.2801 32.9631 21.9693L31.8282 15.4049L36.6012 10.7362C36.8255 10.5183 36.9844 10.2419 37.0597 9.93831C37.1351 9.63472 37.1239 9.31611 37.0275 9.01855C36.9311 8.72098 36.7533 8.45637 36.5142 8.25467C36.2751 8.05298 35.9843 7.92227 35.6748 7.87734L29.0183 6.90802L26.049 0.920302C25.9083 0.641439 25.6924 0.407484 25.4257 0.244869C25.159 0.0822528 24.8522 -0.00254379 24.5398 5.81273e-05C24.2285 -0.00139847 23.923 0.0839385 23.6575 0.246491C23.392 0.409043 23.177 0.642377 23.0368 0.920302V0.920302L20.0613 6.90802L13.4049 7.86507C13.0923 7.90727 12.798 8.03689 12.5558 8.239C12.3136 8.44111 12.1334 8.7075 12.036 9.0075C11.9386 9.3075 11.9278 9.62892 12.005 9.93476C12.0822 10.2406 12.2442 10.5184 12.4724 10.7362L17.2822 15.3743ZM20.7975 8.66262C20.9419 8.63849 21.0784 8.58026 21.1958 8.49276C21.3132 8.40527 21.408 8.29104 21.4723 8.15955L24.5398 2.02459L27.6073 8.15955C27.6734 8.29333 27.7711 8.40902 27.8918 8.49666C28.0126 8.5843 28.1529 8.64126 28.3006 8.66262L35.0981 9.64421L30.1901 14.3927C30.0821 14.4964 30.0011 14.625 29.9541 14.7672C29.907 14.9094 29.8954 15.0609 29.9202 15.2086L31.0797 21.9264L25.1349 18.8282C25.0049 18.7615 24.8608 18.7267 24.7147 18.7267C24.5685 18.7267 24.4245 18.7615 24.2944 18.8282L18.0368 21.9693L19.2024 15.2209C19.2229 15.0736 19.2073 14.9236 19.1571 14.7836C19.1069 14.6436 19.0235 14.5179 18.9141 14.4172L14.0061 9.66875L20.7975 8.66262Z" fill="white"/>
<path d="M50.3067 27.3007C49.9985 26.9447 49.6231 26.6531 49.202 26.4425C48.7809 26.232 48.3223 26.1066 47.8527 26.0737C47.3831 26.0414 46.9118 26.1041 46.467 26.258C46.0222 26.4119 45.613 26.6538 45.2637 26.9694L36.7668 34.6013C36.7447 34.4317 36.7119 34.2637 36.6686 34.0982C36.5259 33.5666 36.27 33.0722 35.9184 32.6486C35.5669 32.2251 35.128 31.8825 34.6318 31.6442C33.0552 30.9817 30.865 31.2884 28.7484 31.5951C27.5105 31.8375 26.2461 31.9159 24.9877 31.8283C24.4277 31.6878 23.8861 31.4818 23.3742 31.2148C21.7668 30.497 19.5644 29.5154 15.4662 30.4172C13.3504 30.9637 11.4069 32.0357 9.81593 33.5338V31.2884C9.81593 31.0443 9.71898 30.8103 9.5464 30.6377C9.37382 30.4651 9.13975 30.3682 8.89569 30.3682H0.920244C0.67618 30.3682 0.442112 30.4651 0.269533 30.6377C0.0969539 30.8103 0 31.0443 0 31.2884V49.0798C0 49.3238 0.0969539 49.5579 0.269533 49.7305C0.442112 49.9031 0.67618 50 0.920244 50H8.89569C9.13975 50 9.37382 49.9031 9.5464 49.7305C9.71898 49.5579 9.81593 49.3238 9.81593 49.0798V47.8037C11.0429 48.092 16.6135 49.3865 20.73 49.3865C25.0245 49.3865 30.276 48.4049 33.5091 47C39.4662 44.4172 49.276 33.27 50.0735 32.3681C50.7645 31.7201 51.1755 30.8281 51.219 29.8817C51.2625 28.9354 50.9352 28.0094 50.3067 27.3007V27.3007ZM7.97545 48.1595H1.84049V32.2086H7.97545V48.1595ZM48.7975 31.0369L48.7116 31.1228C48.6073 31.2393 38.4723 42.8467 32.7607 45.319C29.7546 46.6258 24.7975 47.546 20.73 47.546C16.4356 47.546 10.0981 45.9755 10.0368 45.9632C9.96344 45.9543 9.88928 45.9543 9.81593 45.9632V36.1473C10.4846 35.3804 12.8466 32.8896 15.865 32.227C19.3742 31.4602 21.1043 32.227 22.6135 32.908C23.2646 33.2287 23.9528 33.4678 24.6625 33.6197C26.1114 33.7563 27.5725 33.6819 29 33.3988C30.7852 33.1534 32.8098 32.8712 33.9079 33.3313C34.144 33.4671 34.3504 33.6489 34.5149 33.866C34.6793 34.0831 34.7983 34.3311 34.865 34.5951C34.9541 34.9573 34.9555 35.3355 34.8691 35.6982C34.7826 36.061 34.6109 36.398 34.368 36.681C32.9693 38.5583 24.4601 41.3681 20.9693 41.0921C20.7252 41.0734 20.4837 41.1524 20.2979 41.3117C20.1121 41.4711 19.9972 41.6977 19.9785 41.9418C19.9598 42.1858 20.0388 42.4273 20.1981 42.6131C20.3575 42.7989 20.5841 42.9138 20.8282 42.9326C21.0184 42.9326 21.227 42.9326 21.4417 42.9326C25.2515 42.9326 32.5276 40.6872 35.1901 38.4418L35.2576 38.4049L46.4478 28.3436C46.784 28.0441 47.2251 27.8897 47.6748 27.9142C47.9101 27.9284 48.1401 27.9901 48.3509 28.0956C48.5618 28.201 48.7492 28.348 48.9018 28.5277C49.2168 28.8761 49.3824 29.3343 49.3629 29.8036C49.3434 30.2729 49.1403 30.7158 48.7975 31.0369V31.0369Z" fill="white"/>
</svg>
