<?xml version="1.0" standalone="no"?>
<!DOCTYPE svg PUBLIC "-//W3C//DTD SVG 20010904//EN"
 "http://www.w3.org/TR/2001/REC-SVG-20010904/DTD/svg10.dtd">
<svg version="1.0" xmlns="http://www.w3.org/2000/svg"
 width="804.000000pt" height="804.000000pt" viewBox="0 0 804.000000 804.000000"
 preserveAspectRatio="xMidYMid meet">
<metadata>
Created by potrace 1.14, written by Peter Selinger 2001-2017
</metadata>
<g transform="translate(0.000000,804.000000) scale(0.100000,-0.100000)"
fill="#000000" stroke="none">
<path d="M3210 7875 c-129 -80 -242 -148 -250 -152 -8 -4 -73 -43 -145 -87
-71 -44 -140 -84 -152 -90 -13 -6 -23 -14 -23 -18 0 -5 -4 -8 -9 -8 -6 0 -102
-56 -216 -125 -113 -69 -210 -125 -215 -125 -4 0 -10 -3 -12 -8 -2 -6 -85 -58
-171 -107 -9 -5 -120 -72 -245 -148 -125 -75 -240 -145 -257 -155 -16 -9 -32
-20 -35 -23 -3 -3 -10 -8 -15 -10 -6 -2 -36 -20 -68 -39 l-57 -35 0 -2342 c0
-1289 2 -2343 6 -2343 3 0 35 19 72 43 92 60 217 139 247 157 14 8 85 53 158
99 72 47 182 116 242 154 61 39 139 88 174 111 132 84 278 176 346 218 39 23
75 46 80 51 14 11 116 77 120 77 3 0 377 237 390 247 6 5 33 22 60 37 28 16
52 32 55 35 6 8 41 29 60 38 8 4 17 9 20 13 3 3 25 18 50 32 l44 26 1 2311 c0
1535 -3 2311 -10 2310 -5 0 -116 -65 -245 -144z"/>
<path d="M3671 3670 l0 -3640 22 0 c38 -1 2030 -1 2067 0 l35 0 -1 2998 c-1
1648 -2 3000 -3 3004 -1 5 -54 41 -86 58 -17 9 -116 68 -205 123 -47 29 -166
101 -265 161 -99 60 -203 124 -232 142 -28 19 -54 34 -57 34 -3 0 -25 14 -49
30 -25 17 -50 30 -56 30 -6 0 -11 3 -11 8 0 4 -29 23 -65 42 -36 19 -65 38
-65 43 0 4 -5 7 -10 7 -6 0 -46 23 -90 50 -44 28 -84 50 -90 50 -5 0 -10 5
-10 10 0 6 -4 10 -9 10 -4 0 -54 28 -110 63 -55 34 -109 67 -119 72 -74 43
-250 151 -262 161 -8 7 -17 12 -20 11 -3 0 -30 15 -60 34 -113 72 -228 139
-238 139 -8 0 -11 -1071 -11 -3640z"/>
<path d="M6009 4136 c-1 -6 -2 -932 -2 -2059 l-2 -2047 78 0 c100 -1 491 -1
560 0 l52 0 0 1884 c0 1036 -2 1886 -5 1889 -11 10 -409 207 -418 207 -6 0
-12 3 -14 8 -6 14 -248 129 -249 118z"/>
<path d="M3407 3110 c-26 -16 -52 -30 -57 -30 -4 0 -10 -3 -12 -7 -4 -10 -246
-163 -258 -163 -4 0 -10 -3 -12 -7 -4 -11 -86 -63 -98 -63 -5 0 -10 -4 -10
-10 0 -5 -5 -10 -11 -10 -5 0 -37 -18 -69 -40 -32 -22 -63 -40 -68 -40 -5 0
-15 -7 -22 -15 -7 -8 -24 -21 -39 -28 -14 -8 -138 -85 -276 -172 -137 -87
-287 -181 -332 -209 -44 -28 -164 -103 -265 -166 -100 -63 -185 -117 -188
-120 -3 -3 -22 -14 -42 -25 -21 -11 -38 -23 -38 -27 0 -3 -6 -8 -13 -10 -7 -2
-68 -37 -134 -78 l-122 -75 -1 -373 c0 -296 3 -372 13 -366 6 4 30 19 52 33
22 14 49 31 60 37 44 25 281 174 292 184 7 5 15 10 18 10 4 0 25 12 48 28 66
42 81 52 97 59 8 4 17 9 20 13 4 5 121 79 195 123 35 21 129 79 165 103 129
82 281 174 290 174 6 0 13 7 16 15 4 8 10 15 16 15 5 0 34 16 64 35 30 19 57
35 60 35 2 0 10 5 17 10 7 6 113 73 237 150 124 77 230 144 237 150 7 5 15 10
18 10 2 0 48 27 100 61 86 55 95 64 96 92 0 18 2 165 5 327 2 162 6 319 7 348
2 28 1 52 -3 52 -3 0 -27 -13 -53 -30z"/>
<path d="M3419 2112 c-15 -9 -51 -32 -80 -50 -59 -36 -58 -35 -176 -109 -45
-29 -87 -53 -92 -53 -5 0 -11 -3 -13 -7 -1 -5 -43 -33 -93 -63 -49 -30 -91
-58 -93 -62 -2 -4 -7 -8 -12 -8 -5 0 -44 -22 -87 -49 -43 -27 -139 -87 -213
-132 -74 -45 -136 -86 -138 -91 -2 -4 -7 -8 -12 -8 -7 0 -833 -509 -855 -528
-5 -4 -35 -23 -65 -40 -30 -18 -75 -46 -100 -61 l-45 -27 -3 -397 -2 -397 27
0 c59 -1 1806 -1 1948 0 l150 0 0 1050 c0 694 -3 1050 -10 1049 -5 0 -22 -8
-36 -17z"/>
</g>
</svg>
