<?xml version="1.0" encoding="UTF-8"?>
<svg width="73px" height="38px" viewBox="0 0 73 38" version="1.1" xmlns="http://www.w3.org/2000/svg" xmlns:xlink="http://www.w3.org/1999/xlink">
    <title>reparacion</title>
    <g id="Page-1" stroke="none" stroke-width="1" fill="none" fill-rule="evenodd">
        <g id="Home" transform="translate(-685.000000, -1794.000000)" fill="#000000" fill-rule="nonzero">
            <g id="reparacion" transform="translate(685.000000, 1794.000000)">
                <path d="M63.875,5.28656 L63.875,0 L60.8333333,0 L60.8333333,5.2896 C58.0030625,8.78712 48.6955625,19 36.5,19 C24.3150833,19 14.9999792,8.78408 12.1666667,5.28808 L12.1666667,0 L9.125,0 L9.125,5.2896 C7.65739583,7.10296 4.45147917,10.716 0,13.78032 L0,15.66208 C1.08283333,14.96136 2.09722917,14.22568 3.04166667,13.47936 L3.04166667,22.8 L0,22.8 L0,25.84 L7.60416667,25.84 L7.60416667,22.8 L4.5625,22.8 L4.5625,12.22384 C6.46202083,10.57768 8.002625,8.96344 9.125,7.676 L9.125,33.44 L7.60416667,33.44 L7.60416667,36.48 L6.08333333,36.48 L6.08333333,38 L15.2083333,38 L15.2083333,36.48 L13.6875,36.48 L13.6875,33.44 L12.1666667,33.44 L12.1666667,7.676 C13.2890417,8.96344 14.8296458,10.57768 16.7291667,12.22384 L16.7291667,22.8 L13.6875,22.8 L13.6875,25.84 L59.3125,25.84 L59.3125,22.8 L56.2708333,22.8 L56.2708333,12.22384 C58.1703542,10.57768 59.7109583,8.96344 60.8333333,7.676 L60.8333333,33.44 L59.3125,33.44 L59.3125,36.48 L57.7916667,36.48 L57.7916667,38 L66.9166667,38 L66.9166667,36.48 L65.3958333,36.48 L65.3958333,33.44 L63.875,33.44 L63.875,7.676 C64.997375,8.96344 66.5379792,10.57768 68.4375,12.22384 L68.4375,22.8 L65.3958333,22.8 L65.3958333,25.84 L73,25.84 L73,22.8 L69.9583333,22.8 L69.9583333,13.48088 C70.9027708,14.22568 71.9171667,14.96288 73,15.6636 L73,13.7788 C68.5500417,10.71144 65.344125,7.09992 63.875,5.28656 Z M24.3333333,22.8 L18.25,22.8 L18.25,13.48088 C20.0339375,14.88992 22.073375,16.26248 24.3333333,17.42072 L24.3333333,22.8 Z M31.9375,22.8 L25.8541667,22.8 L25.8541667,18.15336 C27.749125,19 29.784,19.67032 31.9375,20.0792 L31.9375,22.8 Z M39.5416667,22.8 L33.4583333,22.8 L33.4583333,20.3224 C34.4499167,20.44856 35.4627917,20.52 36.5,20.52 C37.5372083,20.52 38.5500833,20.44856 39.5416667,20.3224 L39.5416667,22.8 Z M47.1458333,22.8 L41.0625,22.8 L41.0625,20.0792 C43.216,19.67032 45.250875,19 47.1458333,18.15336 L47.1458333,22.8 Z M54.75,22.8 L48.6666667,22.8 L48.6666667,17.42072 C50.926625,16.26248 52.9660625,14.88992 54.75,13.48088 L54.75,22.8 Z" id="Shape"></path>
                <rect id="Rectangle" x="18" y="36" width="3" height="2"></rect>
                <rect id="Rectangle" x="0" y="36" width="3" height="2"></rect>
                <rect id="Rectangle" x="30" y="36" width="3" height="2"></rect>
                <rect id="Rectangle" x="24" y="36" width="3" height="2"></rect>
                <rect id="Rectangle" x="40" y="36" width="3" height="2"></rect>
                <rect id="Rectangle" x="52" y="36" width="3" height="2"></rect>
                <rect id="Rectangle" x="46" y="36" width="3" height="2"></rect>
                <rect id="Rectangle" x="70" y="36" width="3" height="2"></rect>
            </g>
        </g>
    </g>
</svg>