<?xml version="1.0" encoding="UTF-8"?>
<svg width="51px" height="59px" viewBox="0 0 51 59" version="1.1" xmlns="http://www.w3.org/2000/svg" xmlns:xlink="http://www.w3.org/1999/xlink">
    <title>geotecnicos</title>
    <g id="Page-1" stroke="none" stroke-width="1" fill="none" fill-rule="evenodd">
        <g id="Home" transform="translate(-1230.000000, -1789.000000)" fill="#000000" fill-rule="nonzero">
            <g id="geotecnicos" transform="translate(1230.000000, 1789.000000)">
                <path d="M48.1297796,4.82 L36.8197796,4.82 L37.0997796,3.07 C37.1436894,2.27262553 36.8579801,1.4922454 36.309599,0.91171781 C35.7612179,0.331190222 34.9983606,0.00153617338 34.1997796,0 L16.6597796,0 C15.8611985,0.00153617338 15.0983412,0.331190222 14.5499601,0.91171781 C14.001579,1.4922454 13.7158698,2.27262553 13.7597796,3.07 L14.0397796,4.82 L2.72977955,4.82 C1.19691731,4.91012936 0,6.17949033 0,7.715 C0,9.25050967 1.19691731,10.5198706 2.72977955,10.61 L14.9697796,10.61 L15.9697796,16.54 C16.2247375,18.4760536 17.9656495,19.8634809 19.9097796,19.68 L19.9097796,28.06 C19.9097796,28.6122847 20.3574948,29.06 20.9097796,29.06 L22.5197796,29.06 L22.5197796,51.86 C22.5177704,51.9803342 22.5416425,52.0996951 22.5897796,52.21 L24.5297796,57.35 C24.6733213,57.7454845 25.0490514,58.0088256 25.4697796,58.0088256 C25.8905077,58.0088256 26.2662379,57.7454845 26.4097796,57.35 L28.3497796,52.21 C28.3939136,52.0984753 28.4176245,51.9799205 28.4197796,51.86 L28.4197796,29.06 L30.0297796,29.06 C30.5820643,29.06 31.0297796,28.6122847 31.0297796,28.06 L31.0297796,19.68 C32.9588248,19.8598784 34.6907295,18.4972123 34.9697796,16.58 L35.9697796,10.58 L48.1297796,10.58 C49.589745,10.407643 50.6897796,9.17010405 50.6897796,7.7 C50.6897796,6.22989595 49.589745,4.99235703 48.1297796,4.82 Z M2.72977955,8.61 C2.27195452,8.56153885 1.92451603,8.17538271 1.92451603,7.715 C1.92451603,7.25461729 2.27195452,6.86846115 2.72977955,6.82 L14.3597796,6.82 L14.6497796,8.61 L2.72977955,8.61 Z M26.4297796,51.67 L25.4297796,54.17 L24.4797796,51.67 L24.4797796,29.06 L26.4297796,29.06 L26.4297796,51.67 Z M29.0397796,27.06 L21.8697796,27.06 L21.8697796,19.68 L28.9897796,19.68 L29.0397796,27.06 Z M33.0397796,16.29 C32.9376396,17.0969319 32.2429793,17.6966697 31.4297796,17.68 L19.4797796,17.68 C18.6733615,17.6699912 18.0004465,17.0613675 17.9097796,16.26 L15.7497796,2.85 C15.7861447,2.37324275 16.1816526,2.00381231 16.6597796,2 L34.1997796,2 C34.6779065,2.00381231 35.0734144,2.37324275 35.1097796,2.85 L33.0397796,16.29 Z M48.1297796,8.61 L36.2097796,8.61 L36.4997796,6.82 L48.1297796,6.82 C48.5876046,6.86846115 48.9350431,7.25461729 48.9350431,7.715 C48.9350431,8.17538271 48.5876046,8.56153885 48.1297796,8.61 L48.1297796,8.61 Z" id="Shape"></path>
                <path d="M21.3597796,5.84 C20.8074948,5.84 20.3597796,6.28771525 20.3597796,6.84 L20.3597796,13.61 C20.3597796,14.1622847 20.8074948,14.61 21.3597796,14.61 C21.9120643,14.61 22.3597796,14.1622847 22.3597796,13.61 L22.3597796,6.84 C22.3597796,6.28771525 21.9120643,5.84 21.3597796,5.84 Z" id="Path"></path>
                <path d="M25.4297796,5.84 C24.8774948,5.84 24.4297796,6.28771525 24.4297796,6.84 L24.4297796,13.61 C24.4297796,14.1622847 24.8774948,14.61 25.4297796,14.61 C25.9820643,14.61 26.4297796,14.1622847 26.4297796,13.61 L26.4297796,6.84 C26.4297796,6.28771525 25.9820643,5.84 25.4297796,5.84 Z" id="Path"></path>
                <path d="M29.4997796,5.84 C28.9474948,5.84 28.4997796,6.28771525 28.4997796,6.84 L28.4997796,13.61 C28.4997796,14.1622847 28.9474948,14.61 29.4997796,14.61 C30.0520643,14.61 30.4997796,14.1622847 30.4997796,13.61 L30.4997796,6.84 C30.4997796,6.28771525 30.0520643,5.84 29.4997796,5.84 Z" id="Path"></path>
                <path d="M19.6897796,56 L5.42977955,56 C4.8774948,56 4.42977955,56.4477153 4.42977955,57 C4.42977955,57.5522847 4.8774948,58 5.42977955,58 L19.6897796,58 C20.2420643,58 20.6897796,57.5522847 20.6897796,57 C20.6897796,56.4477153 20.2420643,56 19.6897796,56 Z" id="Path"></path>
                <path d="M43.3397796,56 L30.9597796,56 C30.4074948,56 29.9597796,56.4477153 29.9597796,57 C29.9597796,57.5522847 30.4074948,58 30.9597796,58 L43.3397796,58 C43.8920643,58 44.3397796,57.5522847 44.3397796,57 C44.3397796,56.4477153 43.8920643,56 43.3397796,56 Z" id="Path"></path>
                <path d="M30.5997796,54 C30.8131841,54.1580723 31.0807015,54.2247649 31.343335,54.1853699 C31.6059685,54.1459749 31.8421451,54.0037281 31.9997796,53.79 L36.2997796,48 C36.5211635,47.6970619 36.5543385,47.2956884 36.3856969,46.9605133 C36.2170554,46.6253382 35.874979,46.4127703 35.4997796,46.41 L33.2197796,46.41 L35.3697796,43 C35.6013983,42.7001125 35.6436238,42.2950724 35.47884,41.9538598 C35.3140561,41.6126472 34.9705717,41.3938804 34.5916862,41.388738 C34.2128007,41.3837744 33.8636044,41.5933033 33.6897796,41.93 L30.5497796,46.84 C30.3537873,47.1531569 30.3464145,47.5488598 30.5306052,47.8691003 C30.7147958,48.1893408 31.0605404,48.3819435 31.4297796,48.37 L33.5597796,48.37 L30.4297796,52.62 C30.1050565,53.0505839 30.1802647,53.6610976 30.5997796,54 Z" id="Path"></path>
                <path d="M14.2597796,46.9 C14.1081382,47.225329 14.1424863,47.6069751 14.3497796,47.9 L18.6597796,53.75 C18.8723526,54.0375988 19.2222103,54.1899447 19.5775647,54.1496505 C19.932919,54.1093562 20.2397833,53.8825435 20.3825647,53.5546505 C20.525346,53.2267574 20.4823526,52.8475988 20.2697796,52.56 L17.1397796,48.31 L19.2597796,48.31 C19.6251268,48.309392 19.9610634,48.1095907 20.136011,47.7888535 C20.3109586,47.4681163 20.2970679,47.0775001 20.0997796,46.77 L16.9697796,41.9 C16.6660229,41.4333194 16.0414602,41.3012434 15.5747796,41.605 C15.108099,41.9087566 14.976023,42.5333194 15.2797796,43 L17.4297796,46.35 L15.1597796,46.35 C14.7796227,46.3473543 14.4308451,46.5604962 14.2597796,46.9 L14.2597796,46.9 Z" id="Path"></path>
            </g>
        </g>
    </g>
</svg>