<?xml version="1.0" encoding="UTF-8"?>
<svg width="51px" height="51px" viewBox="0 0 51 51" version="1.1" xmlns="http://www.w3.org/2000/svg" xmlns:xlink="http://www.w3.org/1999/xlink">
    <title>ingenieria</title>
    <g id="Page-1" stroke="none" stroke-width="1" fill="none" fill-rule="evenodd">
        <g id="Home" transform="translate(-162.000000, -1788.000000)" fill="#000000" fill-rule="nonzero">
            <g id="ingenieria" transform="translate(162.000000, 1788.000000)">
                <path d="M12.1016949,6.05084746 C12.1016949,2.71510169 9.38659322,0 6.05084746,0 C2.71510169,0 0,2.71510169 0,6.05084746 L0,44.9491525 L0.00259322034,44.9491525 C0.00259322034,44.9664407 0,44.9837288 0,45.0010169 C0,48.3091017 2.69089831,51 5.99898305,51 L51,51 L51,6.05084746 L12.1016949,6.05084746 Z M1.72881356,6.05084746 C1.72881356,3.95811864 3.22510169,2.20942373 5.20372881,1.81438983 C5.24867797,2.25005085 5.60394915,2.59322034 6.05084746,2.59322034 C6.49774576,2.59322034 6.85301695,2.25005085 6.8979661,1.81438983 C8.87659322,2.20942373 10.3728814,3.95811864 10.3728814,6.05084746 L10.3728814,40.7178814 C9.27422034,39.5958814 7.74249153,38.8983051 6.05084746,38.8983051 C5.84079661,38.8983051 5.63420339,38.9095424 5.42933898,38.9302881 C5.33771186,38.9397966 5.24781356,38.9579492 5.15705085,38.9717797 C5.04640678,38.9882034 4.93489831,39.0011695 4.82598305,39.0236441 C4.70669492,39.0478475 4.59172881,39.0824237 4.47589831,39.1135424 C4.39983051,39.1342881 4.3220339,39.1498475 4.24683051,39.1731864 C4.10247458,39.219 3.96244068,39.2734576 3.82240678,39.3296441 C3.78005085,39.3469322 3.73510169,39.3598983 3.69274576,39.3780508 C3.52072881,39.450661 3.35389831,39.5336441 3.18966102,39.6218136 C3.18274576,39.6252712 3.1749661,39.6287288 3.16805085,39.6321864 C2.63557627,39.9217627 2.14977966,40.2882712 1.72881356,40.7178814 L1.72881356,6.05084746 Z M49.2711864,49.2711864 L5.99898305,49.2711864 C3.64433898,49.2711864 1.72881356,47.355661 1.72881356,44.9491525 C1.72881356,42.5659831 3.66767797,40.6271186 6.05084746,40.6271186 C8.43401695,40.6271186 10.3728814,42.5659831 10.3728814,44.9491525 L12.1016949,44.9491525 L12.1016949,7.77966102 L49.2711864,7.77966102 L49.2711864,49.2711864 Z" id="Shape"></path>
                <path d="M39.6984935,17.8258927 C39.8437528,17.9429156 40.0096454,18 40.1738874,18 C40.4330432,18 40.6880722,17.8601433 40.8490129,17.5975552 C41.11147,17.168471 41.023159,16.5747936 40.6509321,16.2703436 L39.3023319,15.1733723 C38.9284543,14.8717765 38.4150949,14.973577 38.1509871,15.4017097 C37.88853,15.8307939 37.976841,16.4244714 38.3490679,16.7289214 L39.6984935,17.8258927 Z" id="Path"></path>
                <path d="M43.6997134,20.8258894 C43.8441342,20.9429146 44.0100118,21 44.1742389,21 C44.4333712,21 44.6883771,20.8601407 44.8493031,20.5965963 C45.1117364,20.1675042 45.0226081,19.5738157 44.650415,19.2703115 L43.3011119,18.1733198 C42.9289188,17.8717185 42.4147807,17.9735208 42.1506969,18.402613 C41.8882636,18.8317051 41.9773919,19.4253936 42.349585,19.7288978 L43.6997134,20.8258894 Z" id="Path"></path>
                <path d="M32,35 C32,35.553 32.33525,36 32.75,36 L34.25,36 C34.66475,36 35,35.553 35,35 C35,34.447 34.66475,34 34.25,34 L32.75,34 C32.33525,34 32,34.447 32,35 Z" id="Path"></path>
                <path d="M44,23.75 L44,25.25 C44,25.66475 44.447,26 45,26 C45.553,26 46,25.66475 46,25.25 L46,23.75 C46,23.33525 45.553,23 45,23 C44.447,23 44,23.33525 44,23.75 Z" id="Path"></path>
                <path d="M35.6984935,14.8258927 C35.8437528,14.9429156 36.0096454,15 36.1738874,15 C36.4330432,15 36.6880722,14.8601433 36.8490129,14.5975552 C37.11147,14.168471 37.023159,13.5747936 36.6509321,13.2703436 L35.3023319,12.1733723 C34.9284543,11.8717765 34.4150949,11.973577 34.1509871,12.4017097 C33.88853,12.8307939 33.976841,13.4244714 34.3490679,13.7289214 L35.6984935,14.8258927 Z" id="Path"></path>
                <path d="M37,35 C37,35.553 37.33525,36 37.75,36 L39.25,36 C39.66475,36 40,35.553 40,35 C40,34.447 39.66475,34 39.25,34 L37.75,34 C37.33525,34 37,34.447 37,35 Z" id="Path"></path>
                <path d="M25,35 C25,34.447 24.66475,34 24.25,34 L22.75,34 C22.33525,34 22,34.447 22,35 C22,35.553 22.33525,36 22.75,36 L24.25,36 C24.66475,36 25,35.553 25,35 Z" id="Path"></path>
                <path d="M45,31 C45.553,31 46,30.66475 46,30.25 L46,28.75 C46,28.33525 45.553,28 45,28 C44.447,28 44,28.33525 44,28.75 L44,30.25 C44,30.66475 44.447,31 45,31 Z" id="Path"></path>
                <path d="M31.6984935,11.8258533 C31.8437528,11.9429027 32.0096454,12 32.1738874,12 C32.4330432,12 32.6880722,11.8601117 32.8490129,11.5974642 C33.11147,11.1682831 33.023159,10.5744715 32.6509321,10.2699527 L31.3023319,9.17273349 C30.9284543,8.87202119 30.4150949,8.97384466 30.1509871,9.40112257 C29.88853,9.83030372 29.976841,10.4241153 30.3490679,10.7286341 L31.6984935,11.8258533 Z" id="Path"></path>
                <path d="M44.5,34.3411667 L43.75,34.3411667 C43.33525,34.3411667 43,34.711916 43,35.1705834 C43,35.6292508 43.33525,36 43.75,36 L46,36 L46,33.8294166 C46,33.3707492 45.66475,33 45.25,33 C44.83525,33 44.5,33.3707492 44.5,33.8294166 L44.5,34.3411667 Z" id="Path"></path>
                <path d="M17.75,36 L19.25,36 C19.66475,36 20,35.553 20,35 C20,34.447 19.66475,34 19.25,34 L17.75,34 C17.33525,34 17,34.447 17,35 C17,35.553 17.33525,36 17.75,36 Z" id="Path"></path>
                <path d="M16,24 C16.553,24 17,23.66475 17,23.25 L17,21.75 C17,21.33525 16.553,21 16,21 C15.447,21 15,21.33525 15,21.75 L15,23.25 C15,23.66475 15.447,24 16,24 Z" id="Path"></path>
                <path d="M17.8270993,20 C17.9913019,20 18.1571548,19.9429235 18.3023792,19.8259167 L19.6506561,18.7290971 C20.0227938,18.4256404 20.1119088,17.832045 19.8486895,17.4020689 C19.5862953,16.9739953 19.0722338,16.8712576 18.6976208,17.173763 L17.3493439,18.2705827 C16.9772062,18.5740393 16.8880912,19.1676347 17.1513105,19.5976108 C17.3130377,19.8592113 17.5680057,20 17.8270993,20 Z" id="Path"></path>
                <path d="M21.8270993,17 C21.9913019,17 22.1571548,16.9429106 22.3023792,16.8258774 L23.6506561,15.7288099 C24.0227938,15.4252847 24.1119088,14.8315552 23.8486895,14.401482 C23.5854702,13.9742631 23.0722338,13.8715023 22.6976208,14.1731245 L21.3493439,15.2701919 C20.9772062,15.5737171 20.8880912,16.1674466 21.1513105,16.5975199 C21.3122126,16.8591795 21.5671805,17 21.8270993,17 Z" id="Path"></path>
                <path d="M16,29 C16.553,29 17,28.66475 17,28.25 L17,26.75 C17,26.33525 16.553,26 16,26 C15.447,26 15,26.33525 15,26.75 L15,28.25 C15,28.66475 15.447,29 16,29 Z" id="Path"></path>
                <path d="M25.8270993,14 C25.9913019,14 26.1571548,13.9429264 26.3023792,13.8259256 L27.6506561,12.7291614 C28.0227938,12.4257202 28.1119088,11.8321549 27.8486895,11.4022005 C27.5854702,10.9750998 27.0730589,10.8704649 26.6976208,11.1739062 L25.3493439,12.2706703 C24.9772062,12.5741115 24.8880912,13.1676768 25.1513105,13.5976312 C25.3130377,13.8592185 25.5671805,14 25.8270993,14 Z" id="Path"></path>
                <path d="M27,35 C27,35.553 27.33525,36 27.75,36 L29.25,36 C29.66475,36 30,35.553 30,35 C30,34.447 29.66475,34 29.25,34 L27.75,34 C27.33525,34 27,34.447 27,35 Z" id="Path"></path>
                <path d="M16,34 C16.553,34 17,33.66475 17,33.25 L17,31.75 C17,31.33525 16.553,31 16,31 C15.447,31 15,31.33525 15,31.75 L15,33.25 C15,33.66475 15.447,34 16,34 Z" id="Path"></path>
                <path d="M36,47 L47,47 L47,40 L36,40 L36,47 Z M37.6923077,41.75 L45.3076923,41.75 L45.3076923,45.25 L37.6923077,45.25 L37.6923077,41.75 Z" id="Shape"></path>
                <path d="M19,25.75 L19,27.25 C19,27.66475 19.447,28 20,28 C20.553,28 21,27.66475 21,27.25 L21,25.75 C21,25.33525 20.553,25 20,25 C19.447,25 19,25.33525 19,25.75 Z" id="Path"></path>
                <path d="M27,24 C26.447,24 26,24.33525 26,24.75 L26,26.25 C26,26.66475 26.447,27 27,27 C27.553,27 28,26.66475 28,26.25 L28,24.75 C28,24.33525 27.553,24 27,24 Z" id="Path"></path>
                <path d="M21.75,25 L23.25,25 C23.66475,25 24,24.553 24,24 C24,23.447 23.66475,23 23.25,23 L21.75,23 C21.33525,23 21,23.447 21,24 C21,24.553 21.33525,25 21.75,25 Z" id="Path"></path>
                <path d="M22,31 C22,30.447 21.66475,30 21.25,30 L19.75,30 C19.33525,30 19,30.447 19,31 C19,31.553 19.33525,32 19.75,32 L21.25,32 C21.66475,32 22,31.553 22,31 Z" id="Path"></path>
                <path d="M24.75,32 L26.25,32 C26.66475,32 27,31.66475 27,31.25 L27,29.75 C27,29.33525 26.66475,29 26.25,29 C25.83525,29 25.5,29.33525 25.5,29.75 L25.5,30.5 L24.75,30.5 C24.33525,30.5 24,30.83525 24,31.25 C24,31.66475 24.33525,32 24.75,32 Z" id="Path"></path>
                <path d="M35,24 C35,24.553 35.33525,25 35.75,25 L37.25,25 C37.66475,25 38,24.553 38,24 C38,23.447 37.66475,23 37.25,23 L35.75,23 C35.33525,23 35,23.447 35,24 Z" id="Path"></path>
                <path d="M40,24.75 L40,26.25 C40,26.66475 40.447,27 41,27 C41.553,27 42,26.66475 42,26.25 L42,24.75 C42,24.33525 41.553,24 41,24 C40.447,24 40,24.33525 40,24.75 Z" id="Path"></path>
                <path d="M40.25,32 C40.66475,32 41,31.66475 41,31.25 L41,29.75 C41,29.33525 40.66475,29 40.25,29 C39.83525,29 39.5,29.33525 39.5,29.75 L39.5,30.5 L38.75,30.5 C38.33525,30.5 38,30.83525 38,31.25 C38,31.66475 38.33525,32 38.75,32 L40.25,32 Z" id="Path"></path>
                <path d="M34,28 C34.553,28 35,27.66475 35,27.25 L35,25.75 C35,25.33525 34.553,25 34,25 C33.447,25 33,25.33525 33,25.75 L33,27.25 C33,27.66475 33.447,28 34,28 Z" id="Path"></path>
                <path d="M33.75,32 L35.25,32 C35.66475,32 36,31.553 36,31 C36,30.447 35.66475,30 35.25,30 L33.75,30 C33.33525,30 33,30.447 33,31 C33,31.553 33.33525,32 33.75,32 Z" id="Path"></path>
                <path d="M33.1428571,40 L28.8571429,40 C28.3831429,40 28,40.447 28,41 C28,41.553 28.3831429,42 28.8571429,42 L33.1428571,42 C33.6168571,42 34,41.553 34,41 C34,40.447 33.6168571,40 33.1428571,40 Z" id="Path"></path>
                <path d="M33.1111111,42 L26.8888889,42 C26.3973333,42 26,42.447 26,43 C26,43.553 26.3973333,44 26.8888889,44 L33.1111111,44 C33.6026667,44 34,43.553 34,43 C34,42.447 33.6026667,42 33.1111111,42 Z" id="Path"></path>
                <path d="M33.1666667,45 L24.8333333,45 C24.3725,45 24,45.447 24,46 C24,46.553 24.3725,47 24.8333333,47 L33.1666667,47 C33.6275,47 34,46.553 34,46 C34,45.447 33.6275,45 33.1666667,45 Z" id="Path"></path>
                <circle id="Oval" cx="3" cy="4" r="1"></circle>
                <circle id="Oval" cx="9" cy="4" r="1"></circle>
                <circle id="Oval" cx="6" cy="7" r="1"></circle>
                <circle id="Oval" cx="3" cy="10" r="1"></circle>
                <circle id="Oval" cx="9" cy="10" r="1"></circle>
                <circle id="Oval" cx="3" cy="15" r="1"></circle>
                <circle id="Oval" cx="9" cy="15" r="1"></circle>
                <circle id="Oval" cx="6" cy="12" r="1"></circle>
                <circle id="Oval" cx="6" cy="17" r="1"></circle>
                <circle id="Oval" cx="3" cy="20" r="1"></circle>
                <circle id="Oval" cx="9" cy="20" r="1"></circle>
                <circle id="Oval" cx="3" cy="25" r="1"></circle>
                <circle id="Oval" cx="9" cy="25" r="1"></circle>
                <circle id="Oval" cx="6" cy="22" r="1"></circle>
                <circle id="Oval" cx="6" cy="28" r="1"></circle>
                <circle id="Oval" cx="3" cy="30" r="1"></circle>
                <circle id="Oval" cx="9" cy="30" r="1"></circle>
                <circle id="Oval" cx="3" cy="35" r="1"></circle>
                <circle id="Oval" cx="9" cy="35" r="1"></circle>
                <circle id="Oval" cx="6" cy="33" r="1"></circle>
                <circle id="Oval" cx="6" cy="38" r="1"></circle>
            </g>
        </g>
    </g>
</svg>